<svg id="Layer_1" enable-background="new 0 0 480 480" height="512" viewBox="0 0 480 480" width="512" xmlns="http://www.w3.org/2000/svg"><path d="m116 303.363h-62v7c0 4.418-3.582 8-8 8s-8-3.582-8-8v-40c0-4.418 3.582-8 8-8s8 3.582 8 8v17h62c4.418 0 8 3.582 8 8s-3.582 8-8 8zm-24-63c0-4.418-3.582-8-8-8h-76c-4.418 0-8 3.582-8 8s3.582 8 8 8h76c4.418 0 8-3.582 8-8zm159.952-96.31c5.859 5.861 5.862 15.35-.001 21.213-5.849 5.847-15.364 5.848-21.213 0-5.862-5.861-5.864-15.351 0-21.214 5.861-5.862 15.352-5.864 21.214.001zm26.161-14.85c3.125-3.124 3.125-8.189.001-11.313-20.321-20.323-53.216-20.326-73.54 0-3.124 3.124-3.124 8.189 0 11.313 3.124 3.123 8.189 3.124 11.314-.001 14.07-14.07 36.841-14.069 50.911 0 3.125 3.124 8.19 3.126 11.314.001zm-91.923-29.698c30.481-30.483 79.822-30.49 110.308 0 1.563 1.562 3.609 2.343 5.657 2.343 7.064 0 10.712-8.601 5.657-13.657-36.739-36.737-96.196-36.74-132.936 0-3.125 3.125-3.125 8.19 0 11.314 3.124 3.123 8.19 3.123 11.314 0zm285.81 132.858h-76c-4.418 0-8 3.582-8 8s3.582 8 8 8h76c4.418 0 8-3.582 8-8s-3.582-8-8-8zm-30 38v40c0 4.418-3.582 8-8 8s-8-3.582-8-8v-7h-88c0 9.092.697 17.202-5.117 27.54l24.288 24.289c1.5 1.501 2.343 3.535 2.343 5.657v50.515c0 4.418-3.582 8-8 8s-8-3.582-8-8v-47.201l-21.127-21.126c-5.89 4.546-13.075 7.486-20.901 8.166-3.867 30.497-29.957 54.161-61.487 54.161-17.965 0-35.03-7.784-46.821-21.356-2.897-3.335-2.542-8.388.793-11.285 3.336-2.898 8.388-2.543 11.286.793 25.387 29.224 73.344 15.8 80.031-22.151h-103.288c-9.175 0-17.632-3.113-24.388-8.327l-21.127 21.126v47.201c0 4.418-3.582 8-8 8s-8-3.582-8-8v-50.515c0-2.122.843-4.156 2.343-5.657l24.288-24.288c-3.252-5.783-5.117-12.446-5.117-19.54 0-47.372-.131-44.609.301-46.151.17-.607 12.243-33.15 12.462-33.741 5.784-15.616 20.858-26.107 37.51-26.107h95.455c16.652 0 31.726 10.491 37.51 26.107.189.511 12.135 32.752 12.312 33.265.625 1.79.451 1.321.451 22.627h88v-17c0-4.418 3.582-8 8-8s8 3.58 8 7.998zm-260 65h116c13.233 0 24-10.767 24-24v-42.566l-11.767-31.77c-3.471-9.369-12.515-15.664-22.506-15.664h-95.455c-9.991 0-19.036 6.295-22.506 15.664l-8.273 22.336h124.839c4.418 0 8 3.582 8 8s-3.582 8-8 8h-128.332v36c0 13.234 10.767 24 24 24z"/></svg>