<?xml version="1.0" standalone="no"?>
<!DOCTYPE svg PUBLIC "-//W3C//DTD SVG 20010904//EN"
 "http://www.w3.org/TR/2001/REC-SVG-20010904/DTD/svg10.dtd">
<svg version="1.0" xmlns="http://www.w3.org/2000/svg"
 width="312.000000pt" height="321.000000pt" viewBox="0 0 312.000000 321.000000"
 preserveAspectRatio="xMidYMid meet">

<g transform="translate(0.000000,321.000000) scale(0.100000,-0.100000)"
fill="#000000" stroke="none">
<path d="M1336 3194 c-91 -14 -121 -26 -92 -37 9 -4 16 -2 16 3 0 6 8 10 18 9
14 0 13 -3 -5 -16 -26 -17 -31 -38 -8 -30 8 4 17 2 20 -3 4 -6 -1 -10 -10 -10
-9 0 -13 -4 -10 -10 8 -13 -38 -24 -65 -15 -35 11 -19 -18 16 -30 50 -18 74
-35 74 -53 0 -17 38 -48 53 -44 12 4 8 -26 -5 -31 -10 -4 -10 -6 0 -6 26 -2
10 -20 -23 -27 -19 -3 -35 -10 -35 -14 0 -10 -26 -7 -77 9 -38 13 -41 16 -37
40 5 23 1 28 -30 41 -20 7 -36 17 -36 21 0 3 -12 11 -27 16 -74 26 -96 31
-109 26 -8 -3 -14 -1 -14 5 0 6 -23 5 -64 -2 -66 -13 -116 -40 -236 -127 -59
-43 -67 -53 -79 -98 -7 -28 -17 -51 -23 -51 -5 0 -6 5 -3 10 3 6 -1 10 -9 10
-9 0 -16 -4 -16 -10 0 -5 -7 -10 -15 -10 -8 0 -15 -4 -15 -10 0 -5 -9 -10 -21
-10 -12 0 -23 -8 -26 -20 -3 -11 -9 -18 -13 -15 -4 3 -15 -6 -24 -20 -9 -14
-12 -25 -6 -25 5 0 9 -10 9 -22 -1 -13 8 -50 20 -83 31 -84 43 -126 39 -131
-2 -2 -15 -5 -29 -7 -13 -2 -26 -12 -28 -22 -4 -23 -41 -63 -72 -79 -31 -15
-39 -47 -10 -41 12 2 21 0 21 -5 0 -5 -12 -10 -27 -12 -16 -2 -27 -8 -26 -15
2 -7 -4 -13 -12 -13 -7 0 -18 -7 -23 -15 -11 -21 -38 -10 -46 18 -6 24 -15 19
-21 -12 -2 -11 0 -21 6 -21 5 0 9 -4 9 -8 0 -5 -7 -9 -15 -9 -8 0 -15 5 -15
10 0 5 -8 16 -17 24 -10 8 -12 11 -4 7 9 -5 12 -3 7 4 -14 23 -37 13 -32 -13
4 -19 0 -25 -13 -25 -20 0 -37 -40 -18 -40 7 0 4 -7 -5 -14 -42 -32 -98 -333
-98 -531 0 -738 495 -1387 1188 -1559 120 -29 112 -30 112 2 0 15 5 33 12 40
8 8 8 15 -2 27 -8 10 -17 12 -22 7 -12 -12 -87 5 -108 24 -9 9 -11 17 -5 23
12 11 133 37 235 51 72 10 160 49 160 71 0 5 8 13 18 16 9 4 33 16 52 28 19
12 48 30 63 39 l28 17 -19 32 c-26 43 -21 63 43 193 40 78 59 130 67 180 10
67 43 154 57 154 5 0 13 -12 20 -26 10 -22 8 -31 -9 -59 -21 -35 -26 -80 -10
-90 6 -3 10 -26 10 -50 0 -30 6 -50 19 -62 10 -10 24 -29 31 -42 10 -20 10
-25 -4 -33 -33 -18 -14 -24 73 -24 80 1 92 4 111 24 37 39 2 55 -67 30 -29
-10 -36 -10 -43 2 -16 25 44 63 153 96 31 10 57 21 57 26 0 4 -21 9 -47 10
-46 1 -65 3 -88 8 -5 1 -23 2 -40 1 l-30 0 29 13 c16 7 59 14 95 16 88 3 109
5 117 13 4 4 -8 7 -27 8 -19 0 -43 5 -54 10 -19 9 -18 9 3 5 12 -2 29 3 37 11
11 10 29 14 55 11 22 -2 40 0 40 3 0 7 -119 68 -136 70 -5 0 -24 18 -43 40
-26 31 -31 42 -22 53 9 11 8 18 -4 30 -9 9 -22 17 -28 18 -7 1 24 4 68 7 l80
6 -34 17 c-19 10 -40 18 -46 18 -26 0 -35 77 -10 86 28 11 44 114 18 114 -23
0 -13 15 34 49 52 38 46 51 -13 26 -20 -8 -39 -13 -42 -10 -3 3 0 5 6 5 6 0
17 6 24 13 8 6 22 17 33 23 31 17 28 32 -7 36 -23 2 -34 9 -36 22 -3 11 0 16
7 12 6 -4 11 -2 11 3 0 6 -9 11 -20 11 -27 0 -44 34 -29 58 9 15 8 23 -7 40
-10 12 -26 22 -35 22 -8 0 -19 3 -23 7 -11 11 -39 10 -51 -2 -16 -15 -52 -122
-65 -190 -18 -95 -39 -149 -66 -169 -25 -18 -26 -18 -46 4 -18 20 -21 20 -38
5 -16 -15 -50 -12 -50 5 0 10 34 37 110 89 65 43 74 59 100 182 28 128 28 129
39 169 35 126 37 140 16 140 -12 0 -14 7 -9 28 7 24 6 26 -9 13 -11 -9 -17
-10 -17 -2 0 21 -15 11 -29 -20 -8 -19 -18 -28 -28 -25 -8 3 -11 1 -8 -4 3 -5
-3 -20 -15 -32 -11 -13 -23 -33 -26 -45 -4 -13 -12 -23 -20 -23 -8 0 -14 -6
-14 -14 0 -8 -6 -21 -14 -28 -8 -8 -16 -23 -18 -34 -2 -11 -10 -17 -19 -15
-24 7 -61 2 -75 -10 -12 -9 -13 -3 -8 33 4 32 2 48 -6 53 -8 5 -11 4 -6 -3 3
-6 2 -13 -4 -17 -5 -3 -10 -1 -10 4 0 6 -9 11 -19 11 -19 0 -37 32 -33 56 2
12 -53 64 -66 64 -4 -1 -17 -9 -30 -20 -16 -14 -23 -28 -21 -47 2 -16 0 -33
-4 -40 -4 -6 -4 -18 -1 -26 3 -9 1 -25 -6 -36 -7 -14 -7 -21 0 -21 5 0 10 -13
10 -28 0 -16 9 -39 20 -52 24 -28 25 -34 5 -50 -8 -6 -14 -26 -13 -44 1 -18
-7 -44 -17 -59 -10 -15 -19 -48 -20 -73 -3 -47 -10 -63 -22 -50 -4 4 -1 11 7
16 11 7 6 10 -17 10 -28 0 -33 3 -33 25 0 14 -4 25 -10 25 -5 0 -10 12 -10 28
0 20 -3 23 -10 12 -5 -8 -12 -12 -15 -9 -10 11 -8 111 4 189 6 41 15 122 19
180 l9 105 -30 38 c-25 32 -28 42 -19 60 6 12 13 33 17 47 3 14 12 48 19 75
19 69 34 173 40 280 l5 90 -18 -35 c-11 -19 -28 -62 -39 -96 -11 -33 -29 -79
-41 -102 -22 -44 -51 -56 -51 -22 0 10 -7 23 -16 28 -14 8 -14 10 1 26 18 17
13 52 -6 41 -13 -9 -38 23 -39 49 0 11 -7 26 -15 35 -8 9 -23 26 -33 38 -9 13
-28 24 -42 25 -24 3 -38 18 -61 68 -6 14 -14 32 -18 40 -18 35 10 65 99 108
48 23 90 49 94 57 3 8 12 15 20 15 8 0 16 4 18 8 2 4 19 18 40 30 l36 22 21
-27 c19 -23 21 -35 16 -89 -10 -102 23 -94 51 12 8 33 19 63 24 68 11 11 24
-75 15 -103 -3 -12 -3 -21 2 -22 21 -2 51 -7 83 -13 32 -7 37 -4 54 24 26 44
43 128 35 173 -5 31 -3 37 10 35 9 -2 24 9 35 27 l20 30 7 -25 7 -25 1 27 c1
15 14 46 30 70 25 38 48 108 36 108 -2 0 -11 -12 -20 -27 -15 -28 -16 -20 -1
33 4 13 1 26 -9 34 -17 14 -21 35 -5 25 6 -3 10 -1 10 4 0 6 -5 11 -11 11 -6
0 -8 8 -4 19 5 16 -2 19 -47 24 -87 11 -287 6 -382 -9z m-481 -236 c6 -4 -3
-8 -19 -8 -24 0 -27 2 -16 15 7 9 16 12 19 8 3 -4 11 -11 16 -15z m-35 -22 c0
-2 -7 -7 -16 -10 -8 -3 -12 -2 -9 4 6 10 25 14 25 6z m-33 -62 c-3 -3 -12 -4
-19 -1 -8 3 -5 6 6 6 11 1 17 -2 13 -5z m-132 -68 c0 -14 -3 -22 -7 -20 -4 3
-8 13 -8 22 0 12 -3 13 -11 5 -7 -7 -12 -30 -12 -52 0 -40 -10 -53 -21 -28 -3
6 -3 2 0 -10 4 -19 2 -22 -13 -16 -17 6 -17 6 0 -14 14 -16 15 -23 6 -29 -7
-4 -10 -3 -5 4 12 21 -13 23 -34 2 -43 -43 -41 -18 5 49 19 28 35 55 35 61 0
15 50 64 57 56 4 -3 7 -17 8 -30z m335 9 c0 -8 -4 -15 -10 -15 -5 0 -10 7 -10
15 0 8 5 15 10 15 6 0 10 -7 10 -15z m155 -35 c-3 -5 -10 -10 -16 -10 -5 0 -9
5 -9 10 0 6 7 10 16 10 8 0 12 -4 9 -10z m-495 -142 c0 7 5 10 11 6 13 -8 -7
-24 -32 -24 -12 0 -14 7 -11 33 l5 32 13 -30 c7 -16 13 -24 14 -17z m-183
-244 c-3 -3 -12 -4 -19 -1 -8 3 -5 6 6 6 11 1 17 -2 13 -5z m418 -514 c10 -11
23 -20 29 -20 11 -1 76 -56 76 -65 0 -8 -35 -6 -66 5 -40 14 -97 100 -66 100
5 0 17 -9 27 -20z m708 -230 c3 -11 1 -18 -4 -14 -5 3 -9 12 -9 20 0 20 7 17
13 -6z m-799 -57 c14 -102 26 -292 25 -383 -1 -86 -2 -90 -10 -45 -10 62 -19
152 -25 270 -2 50 -6 116 -9 148 -5 69 11 77 19 10z m-297 20 c-9 -9 -20 -13
-24 -9 -4 4 -1 11 7 16 25 16 35 11 17 -7z m1328 6 c11 -17 -1 -21 -15 -4 -8
9 -8 15 -2 15 6 0 14 -5 17 -11z m-1328 -48 c6 -23 67 -55 104 -54 26 0 26 -1
16 -30 -8 -23 -7 -32 1 -35 7 -2 12 -13 12 -23 0 -11 -4 -18 -9 -15 -12 8 -71
-14 -71 -25 0 -5 9 -9 19 -9 23 0 40 -22 23 -28 -18 -6 -4 -22 19 -22 15 0 19
-5 14 -19 -3 -11 1 -25 10 -34 8 -9 15 -24 14 -34 0 -10 -3 -13 -6 -5 -10 24
-25 12 -18 -16 4 -22 0 -33 -20 -52 -19 -18 -22 -26 -13 -37 12 -15 5 -28 -11
-18 -6 3 -11 17 -11 30 0 13 -4 27 -10 30 -5 3 -10 17 -10 31 0 14 -5 35 -12
47 -6 12 -13 31 -14 42 -9 57 -32 182 -37 195 -13 36 -17 100 -6 100 6 0 13
-9 16 -19z m499 -16 c18 -44 31 -155 17 -155 -13 0 -67 156 -59 175 9 25 26
17 42 -20z m920 21 c18 6 18 6 -1 -9 -20 -15 -35 -7 -35 18 0 6 4 4 8 -3 5 -7
16 -10 28 -6z m-156 -186 c0 -5 -2 -10 -4 -10 -3 0 -8 5 -11 10 -3 6 -1 10 4
10 6 0 11 -4 11 -10z m-378 -32 c-9 -9 -12 -7 -12 12 0 19 3 21 12 12 9 -9 9
-15 0 -24z m-470 -55 c29 -62 34 -80 25 -95 -7 -10 -14 -18 -18 -18 -3 0 -14
26 -24 58 -11 31 -23 61 -27 67 -10 12 -10 65 0 65 4 0 24 -35 44 -77z m-282
-148 c0 -8 -2 -15 -4 -15 -2 0 -6 7 -10 15 -3 8 -1 15 4 15 6 0 10 -7 10 -15z
m726 -356 c41 -11 44 -14 44 -45 0 -19 5 -34 10 -34 6 0 10 -9 10 -19 0 -11 4
-23 10 -26 6 -4 7 1 3 11 -4 12 -3 15 5 10 7 -4 12 -26 11 -49 -1 -23 4 -62 9
-86 6 -25 8 -65 5 -90 -3 -25 -1 -69 4 -97 9 -45 8 -50 -9 -51 -14 -1 -27 15
-49 60 -44 89 -69 159 -62 170 6 10 -18 129 -41 204 -18 57 -17 58 50 42z
m172 -106 c5 -17 -26 -29 -40 -15 -6 6 -7 15 -3 22 9 14 37 9 43 -7z m-698
-332 c0 -5 -7 -14 -15 -21 -12 -10 -15 -10 -15 2 0 8 3 18 7 21 9 10 23 9 23
-2z"/>
<path d="M532 1420 c0 -14 2 -19 5 -12 2 6 2 18 0 25 -3 6 -5 1 -5 -13z"/>
<path d="M575 1220 c3 -5 8 -10 11 -10 2 0 4 5 4 10 0 6 -5 10 -11 10 -5 0 -7
-4 -4 -10z"/>
<path d="M1805 2987 c-10 -51 3 -156 22 -181 14 -19 14 -12 8 83 -7 119 -19
157 -30 98z"/>
<path d="M1731 2778 c-1 -55 3 -100 9 -103 12 -8 12 151 0 180 -6 13 -9 -13
-9 -77z"/>
<path d="M2482 2769 c-2 -19 2 -28 8 -24 12 7 13 42 2 49 -4 2 -9 -9 -10 -25z"/>
<path d="M1822 2754 c-16 -17 -12 -116 4 -121 13 -4 22 67 14 109 -4 22 -7 24
-18 12z"/>
<path d="M2629 2760 c0 -8 0 -31 1 -50 0 -19 -3 -73 -9 -120 -6 -47 -13 -128
-17 -180 -3 -52 -8 -98 -10 -101 -5 -10 -6 -481 0 -578 3 -51 2 -99 -1 -105
-4 -6 -8 -17 -10 -25 -1 -8 -7 -17 -13 -21 -9 -6 -9 -9 1 -13 9 -3 7 -6 -6 -6
-17 -1 -17 -3 -5 -11 12 -8 11 -10 -7 -10 -26 0 -26 17 -2 40 18 17 18 58 0
70 -8 4 -15 41 -19 91 -6 90 -19 74 -21 -28 -1 -45 -4 -53 -20 -53 -30 0 -45
50 -35 117 6 51 8 54 14 28 7 -30 7 -30 13 -5 3 14 8 86 10 160 3 126 2 132
-10 85 -12 -46 -12 -40 -8 80 3 72 7 225 10 340 l4 210 -13 -130 c-8 -71 -21
-242 -30 -380 -9 -137 -21 -289 -26 -336 -6 -48 -10 -123 -10 -167 0 -70 3
-83 21 -95 11 -8 17 -17 12 -20 -12 -7 -9 -129 6 -227 9 -61 21 -98 42 -131
32 -50 39 -102 24 -172 -6 -31 -3 -47 20 -93 20 -40 26 -62 21 -86 -5 -26 -1
-37 21 -60 22 -23 27 -38 29 -90 2 -35 6 -84 10 -110 5 -43 3 -48 -25 -74 -24
-21 -31 -36 -31 -63 0 -22 -8 -43 -21 -57 -12 -12 -19 -28 -17 -35 6 -19 205
182 276 279 79 107 161 253 206 367 62 158 116 406 116 534 l0 34 -19 -21
c-17 -20 -41 -30 -41 -16 0 18 24 44 40 44 18 0 20 7 20 78 -1 307 -124 667
-318 929 -75 101 -171 203 -173 183z m-152 -802 c-3 -8 -6 -5 -6 6 -1 11 2 17
5 13 3 -3 4 -12 1 -19z m-24 -345 c-7 -2 -19 -2 -25 0 -7 3 -2 5 12 5 14 0 19
-2 13 -5z m241 -78 c-4 -8 -10 -15 -16 -15 -5 0 -7 4 -4 9 4 5 0 12 -6 14 -7
3 -3 6 9 6 16 1 21 -3 17 -14z m336 -5 c-8 -5 -22 -9 -30 -9 -10 0 -8 3 5 9
27 12 43 12 25 0z m-213 -6 c-3 -3 -12 -4 -19 -1 -8 3 -5 6 6 6 11 1 17 -2 13
-5z m143 -24 c-14 -11 -29 -24 -35 -28 -26 -20 -38 -25 -30 -11 10 16 41 40
65 51 26 11 26 8 0 -12z m-413 4 c-3 -3 -12 -4 -19 -1 -8 3 -5 6 6 6 11 1 17
-2 13 -5z m143 -4 c0 -5 -7 -10 -15 -10 -8 0 -15 5 -15 10 0 6 7 10 15 10 8 0
15 -4 15 -10z m117 4 c-3 -3 -12 -4 -19 -1 -8 3 -5 6 6 6 11 1 17 -2 13 -5z
m302 2 c-2 -2 -15 -9 -29 -16 -23 -12 -24 -12 -11 3 7 10 20 17 29 17 8 0 13
-2 11 -4z m-154 -47 c-45 -42 -50 -44 -75 -27 -12 7 -10 8 8 5 15 -4 28 2 40
17 17 22 50 45 64 46 4 0 -12 -18 -37 -41z m-398 5 c-3 -3 -12 -4 -19 -1 -8 3
-5 6 6 6 11 1 17 -2 13 -5z m120 0 c-3 -3 -12 -4 -19 -1 -8 3 -5 6 6 6 11 1
17 -2 13 -5z m108 -12 c-3 -3 -11 0 -18 7 -9 10 -8 11 6 5 10 -3 15 -9 12 -12z
m225 5 c0 -1 -21 -21 -47 -42 -36 -30 -43 -33 -28 -13 20 27 75 67 75 55z
m-343 -13 c-3 -3 -12 -4 -19 -1 -8 3 -5 6 6 6 11 1 17 -2 13 -5z m373 -29 c0
-2 -10 -9 -22 -15 -22 -11 -22 -10 -4 4 21 17 26 19 26 11z m-156 -26 c-6 -11
-24 -2 -24 11 0 5 7 7 15 4 8 -4 12 -10 9 -15z m106 -9 c0 -9 -51 -40 -65 -40
-9 0 48 49 58 50 4 0 7 -4 7 -10z m-90 -34 c0 -9 -30 -14 -35 -6 -4 6 3 10 14
10 12 0 21 -2 21 -4z m140 -66 c0 -5 -2 -10 -4 -10 -3 0 -8 5 -11 10 -3 6 -1
10 4 10 6 0 11 -4 11 -10z m-35 -30 c3 -5 1 -10 -4 -10 -6 0 -11 5 -11 10 0 6
2 10 4 10 3 0 8 -4 11 -10z m55 -61 c0 -6 -4 -7 -10 -4 -5 3 -10 11 -10 16 0
6 5 7 10 4 6 -3 10 -11 10 -16z m-30 -20 c0 -5 -4 -9 -10 -9 -5 0 -10 7 -10
16 0 8 5 12 10 9 6 -3 10 -10 10 -16z"/>
<path d="M1860 2721 c0 -5 7 -11 14 -14 10 -4 13 -1 9 9 -6 15 -23 19 -23 5z"/>
<path d="M1965 2601 c3 -5 -1 -12 -7 -14 -8 -4 -7 -6 4 -6 23 -1 32 15 12 23
-8 3 -13 2 -9 -3z"/>
<path d="M2058 2589 c-2 -7 -18 -12 -36 -12 -25 0 -29 -3 -21 -14 6 -7 20 -13
29 -13 10 0 21 -6 24 -12 5 -10 7 -10 12 -1 3 7 11 10 19 7 24 -10 25 13 1 35
-16 15 -25 19 -28 10z"/>
<path d="M1526 2575 c-4 -10 1 -15 14 -15 11 0 20 7 20 15 0 8 -6 15 -14 15
-8 0 -16 -7 -20 -15z"/>
<path d="M1418 2543 c-7 -26 34 -49 60 -33 15 8 14 9 -4 10 -12 0 -28 10 -36
22 l-15 22 -5 -21z"/>
<path d="M2107 2523 c-16 -15 49 -43 100 -43 46 0 52 -2 55 -22 2 -17 10 -23
27 -23 13 0 26 6 29 13 2 7 -5 12 -18 12 -19 0 -21 4 -15 31 6 28 5 30 -14 24
-12 -4 -21 -2 -21 4 0 12 -132 16 -143 4z"/>
<path d="M2542 2190 c0 -14 2 -19 5 -12 2 6 2 18 0 25 -3 6 -5 1 -5 -13z"/>
<path d="M2503 2145 c0 -27 2 -38 4 -22 2 15 2 37 0 50 -2 12 -4 0 -4 -28z"/>
<path d="M2535 2100 c-5 -9 -7 -89 -5 -234 1 -85 10 -22 15 107 6 130 4 150
-10 127z"/>
<path d="M2201 2018 c-5 -13 -22 -44 -39 -69 -58 -85 -106 -183 -94 -187 7 -2
9 -9 5 -15 -4 -7 1 -6 10 2 18 15 23 26 7 16 -14 -8 -13 -2 5 31 8 16 15 23
15 17 0 -7 5 -13 10 -13 6 0 10 8 10 19 0 10 7 24 15 31 8 7 15 21 15 31 0 11
4 27 9 37 32 62 52 114 47 119 -3 3 -10 -5 -15 -19z"/>
<path d="M1570 1965 c0 -5 5 -17 10 -25 5 -8 10 -10 10 -5 0 6 -5 17 -10 25
-5 8 -10 11 -10 5z"/>
<path d="M1602 1930 c0 -14 2 -19 5 -12 2 6 2 18 0 25 -3 6 -5 1 -5 -13z"/>
<path d="M1675 1905 c0 -25 7 -49 17 -58 15 -16 17 -14 23 23 8 49 -1 79 -24
77 -13 -1 -17 -10 -16 -42z"/>
<path d="M1590 1880 c0 -5 5 -10 10 -10 6 0 10 5 10 10 0 6 -4 10 -10 10 -5 0
-10 -4 -10 -10z"/>
<path d="M1679 1811 c9 -6 10 -11 2 -15 -8 -5 -7 -11 2 -20 10 -12 13 -10 20
6 9 24 1 38 -21 38 -13 0 -14 -2 -3 -9z"/>
<path d="M2146 1025 c-11 -8 -15 -15 -9 -15 6 0 16 7 23 15 16 19 11 19 -14 0z"/>
<path d="M2172 1017 c-6 -7 -8 -17 -4 -23 7 -11 48 -36 67 -41 30 -7 114 -36
143 -49 38 -16 62 -18 62 -4 0 6 -8 10 -17 10 -15 0 -16 2 -3 10 8 5 13 10 10
11 -36 6 -44 9 -49 17 -10 15 -69 42 -93 42 -19 0 -20 2 -8 10 11 7 7 10 -17
10 -17 0 -35 5 -38 10 -9 14 -41 12 -53 -3z"/>
<path d="M2540 574 c0 -8 6 -22 14 -30 8 -7 16 -19 19 -26 2 -7 7 -10 11 -7 6
6 -31 79 -40 79 -2 0 -4 -7 -4 -16z"/>
<path d="M1900 500 c0 -5 5 -10 11 -10 5 0 7 5 4 10 -3 6 -8 10 -11 10 -2 0
-4 -4 -4 -10z"/>
<path d="M1842 480 c-14 -23 -2 -26 30 -9 17 9 18 13 7 20 -20 12 -23 11 -37
-11z"/>
<path d="M2511 426 c-8 -20 -8 -33 -2 -39 13 -13 24 13 19 45 -4 22 -5 22 -17
-6z"/>
<path d="M1585 280 c-4 -6 6 -10 22 -10 22 0 25 2 13 10 -19 12 -27 12 -35 0z"/>
<path d="M1610 213 c0 -5 9 -14 19 -20 30 -18 78 -94 90 -141 7 -25 18 -42 26
-42 8 0 15 3 15 6 0 15 -53 110 -81 146 -30 38 -69 66 -69 51z"/>
<path d="M1850 96 c0 -15 24 -66 31 -66 12 0 11 6 -6 40 -13 26 -25 38 -25 26z"/>
</g>
</svg>
