<svg id="Capa_1" enable-background="new 0 0 514.94 514.94" height="512" viewBox="0 0 514.94 514.94" width="512" xmlns="http://www.w3.org/2000/svg"><g><path d="m494.073 100.903h-61.628c-4.143 0-7.5 3.358-7.5 7.5s3.357 7.5 7.5 7.5h61.628c3.235 0 5.867 2.632 5.867 5.867v135.694c0 3.235-2.632 5.867-5.867 5.867h-473.205c-3.235 0-5.868-2.632-5.868-5.867v-135.694c0-3.235 2.632-5.867 5.868-5.867h379.615c4.143 0 7.5-3.358 7.5-7.5s-3.357-7.5-7.5-7.5h-379.615c-11.507 0-20.868 9.361-20.868 20.867v135.694c0 11.506 9.361 20.867 20.868 20.867h473.205c11.506 0 20.867-9.361 20.867-20.867v-135.694c0-11.506-9.361-20.867-20.867-20.867z"/><path d="m64.679 161.696c-3.808-1.625-8.216.142-9.843 3.952-3.245 7.598-4.89 15.662-4.89 23.969 0 33.676 27.398 61.074 61.074 61.074s61.073-27.397 61.073-61.074-27.397-61.074-61.073-61.074c-11.537 0-22.786 3.248-32.53 9.392-3.503 2.209-4.553 6.841-2.344 10.345 2.209 3.503 6.839 4.553 10.345 2.344 7.346-4.632 15.828-7.081 24.529-7.081 25.405 0 46.073 20.668 46.073 46.074s-20.668 46.074-46.073 46.074-46.074-20.668-46.074-46.074c0-6.271 1.24-12.353 3.685-18.078 1.627-3.809-.142-8.216-3.952-9.843z"/><path d="m26.794 85.903c4.142 0 7.5-3.358 7.5-7.5v-56.117c0-3.235 2.632-5.867 5.867-5.867h434.617c3.235 0 5.867 2.632 5.867 5.867v56.117c0 4.142 3.357 7.5 7.5 7.5s7.5-3.358 7.5-7.5v-56.117c0-11.506-9.361-20.867-20.867-20.867h-434.616c-11.506 0-20.867 9.361-20.867 20.867v56.117c-.001 4.142 3.357 7.5 7.499 7.5z"/><path d="m122.325 26.926c-29.084 0-53.411 21.778-56.587 50.657-.453 4.117 2.518 7.822 6.635 8.275 4.124.456 7.822-2.518 8.275-6.635 2.338-21.262 20.255-37.296 41.677-37.296s39.339 16.034 41.677 37.296c.422 3.839 3.671 6.681 7.446 6.681.274 0 .551-.015.829-.045 4.117-.453 7.088-4.158 6.635-8.275-3.176-28.88-27.503-50.658-56.587-50.658z"/><path d="m488.146 293.332c-4.143 0-7.5 3.358-7.5 7.5v56.117c0 3.235-2.632 5.867-5.867 5.867h-434.618c-3.235 0-5.867-2.632-5.867-5.867v-56.117c0-4.142-3.358-7.5-7.5-7.5s-7.5 3.358-7.5 7.5v56.117c0 11.506 9.361 20.867 20.867 20.867h434.618c11.506 0 20.867-9.361 20.867-20.867v-56.117c0-4.143-3.357-7.5-7.5-7.5z"/><path d="m122.325 352.309c29.084 0 53.411-21.778 56.587-50.657.453-4.117-2.518-7.822-6.635-8.275-4.118-.453-7.822 2.519-8.275 6.635-2.338 21.263-20.255 37.297-41.677 37.297s-39.339-16.034-41.677-37.297c-.453-4.117-4.162-7.089-8.275-6.635-4.117.453-7.088 4.158-6.635 8.275 3.176 28.879 27.503 50.657 56.587 50.657z"/><path d="m459.859 392.815c-4.143 0-7.5 3.358-7.5 7.5v35.528c0 3.235-2.632 5.867-5.867 5.867h-152.229c-4.143 0-7.5 3.358-7.5 7.5s3.357 7.5 7.5 7.5h152.229c11.506 0 20.867-9.361 20.867-20.867v-35.528c0-4.142-3.358-7.5-7.5-7.5z"/><path d="m269.8 449.211c0-4.142-3.357-7.5-7.5-7.5h-193.851c-3.235 0-5.867-2.632-5.867-5.867v-35.528c0-4.142-3.358-7.5-7.5-7.5s-7.5 3.358-7.5 7.5v35.528c0 11.506 9.361 20.867 20.867 20.867h193.851c4.143 0 7.5-3.358 7.5-7.5z"/><path d="m138.897 431.872c17.26 0 32.752-10.276 39.468-26.179 1.611-3.815-.176-8.215-3.992-9.827-3.815-1.611-8.215.176-9.827 3.992-4.365 10.335-14.433 17.014-25.65 17.014s-21.286-6.678-25.65-17.014c-1.612-3.816-6.011-5.604-9.827-3.992-3.816 1.611-5.603 6.011-3.992 9.827 6.717 15.903 22.209 26.179 39.47 26.179z"/><path d="m426.334 471.711c-4.143 0-7.5 3.358-7.5 7.5v13.442c0 3.235-2.632 5.868-5.867 5.868h-310.994c-3.235 0-5.868-2.632-5.868-5.868v-13.442c0-4.142-3.358-7.5-7.5-7.5s-7.5 3.358-7.5 7.5v13.442c0 11.506 9.361 20.868 20.868 20.868h310.994c11.506 0 20.867-9.361 20.867-20.868v-13.442c0-4.142-3.357-7.5-7.5-7.5z"/><path d="m167.15 472.268c-5.483 2.24-11.742 2.24-17.225 0-3.837-1.568-8.213.272-9.779 4.106s.272 8.213 4.106 9.779c4.552 1.859 9.358 2.802 14.286 2.802s9.734-.943 14.285-2.802c3.834-1.566 5.673-5.945 4.106-9.779s-5.945-5.674-9.779-4.106z"/><path d="m212.028 176.149h9.845c4.142 0 7.5-3.358 7.5-7.5s-3.358-7.5-7.5-7.5h-9.845c-4.142 0-7.5 3.358-7.5 7.5s3.358 7.5 7.5 7.5z"/><path d="m460.434 161.149h-202.964c-4.142 0-7.5 3.358-7.5 7.5s3.358 7.5 7.5 7.5h202.964c4.143 0 7.5-3.358 7.5-7.5s-3.357-7.5-7.5-7.5z"/><path d="m212.028 221.078h248.406c4.143 0 7.5-3.358 7.5-7.5s-3.357-7.5-7.5-7.5h-248.406c-4.142 0-7.5 3.358-7.5 7.5s3.358 7.5 7.5 7.5z"/><path d="m212.028 48.915c-4.142 0-7.5 3.358-7.5 7.5s3.358 7.5 7.5 7.5h236.229c4.143 0 7.5-3.358 7.5-7.5s-3.357-7.5-7.5-7.5z"/><path d="m448.257 330.32c4.143 0 7.5-3.358 7.5-7.5s-3.357-7.5-7.5-7.5h-236.229c-4.142 0-7.5 3.358-7.5 7.5s3.358 7.5 7.5 7.5z"/><path d="m419.548 420.141c4.143 0 7.5-3.358 7.5-7.5s-3.357-7.5-7.5-7.5h-207.52c-4.142 0-7.5 3.358-7.5 7.5s3.358 7.5 7.5 7.5z"/><path d="m204.528 477.586c0 4.142 3.358 7.5 7.5 7.5h172.488c4.143 0 7.5-3.358 7.5-7.5s-3.357-7.5-7.5-7.5h-172.488c-4.142 0-7.5 3.358-7.5 7.5z"/></g></svg>